<?xml version="1.0" encoding="utf-8"?>
<!-- Generator: Adobe Illustrator 26.4.1, SVG Export Plug-In . SVG Version: 6.00 Build 0)  -->
<svg version="1.1" id="Layer_1" xmlns="http://www.w3.org/2000/svg" xmlns:xlink="http://www.w3.org/1999/xlink" x="0px" y="0px"
	 viewBox="0 0 68 67" style="enable-background:new 0 0 68 67;" xml:space="preserve">
<style type="text/css">
	.st0{fill:#EE351F;}
	.st1{fill:#FABD14;}
	.st2{fill:#224C7E;}
	.st3{fill:#41B93D;}
</style>
<path class="st0" d="M13.8,18.3L0,32.1l11.4,11.4l11.2-11.2c0,0,0.6,0.6,2,2c1.3,1.3,1.1,2.2,0,3.3l-2.3,2.3l2.4,2.5L27,40l1.8-1.8
	c1.2-1.2,0.6-3.4,0-4.6c-0.3-0.6-1.3-1.6-1.5-1.7l-1-1l-1.1-1.1L13.8,18.3z"/>
<path class="st1" d="M49.6,13.8L35.7,0L24.3,11.4l11.2,11.2c0,0-0.6,0.6-2,2c-1.3,1.3-2.2,1.1-3.3,0L28,22.3l-2.5,2.4l2.3,2.3
	l1.8,1.8c1.2,1.2,3.4,0.6,4.6,0c0.6-0.3,1.6-1.3,1.7-1.5l1-1l1.1-1.1L49.6,13.8z"/>
<path class="st2" d="M18.3,52.7l13.8,13.8l11.4-11.4L32.4,43.9c0,0,0.6-0.6,2-2c1.3-1.3,2.2-1.1,3.3,0l2.3,2.3l2.5-2.4L40,39.5
	l-1.8-1.8c-1.2-1.2-3.4-0.6-4.6,0c-0.6,0.3-1.6,1.3-1.7,1.5l-1,1l-1.1,1.1L18.3,52.7z"/>
<path class="st3" d="M54,49.6l13.8-13.8L56.4,24.3L45.2,35.5c0,0-0.6-0.6-2-2c-1.3-1.3-1.1-2.2,0-3.3l2.3-2.3l-2.4-2.5l-2.3,2.3
	L39,29.7c-1.2,1.2-0.6,3.4,0,4.6c0.3,0.6,1.3,1.6,1.5,1.7l1,1l1.1,1.1L54,49.6z"/>
</svg>
